<svg width="500" height="500" viewBox="0 0 500 500" fill="none" xmlns="http://www.w3.org/2000/svg">
<path d="M282.9 230.5H295.6V232.2H290.2V247.7H288.4V232.2H283V230.5H282.9Z" fill="#1C1E23"/>
<path d="M298.1 247.7V230.5H299.8V238C300.1 237.4 300.7 236.8 301.3 236.4C302 236 302.7 235.8 303.6 235.8C304.8 235.8 305.8 236.2 306.6 237C307.3 237.8 307.7 238.9 307.7 240.3V247.6H306V240.7C306 239.6 305.8 238.8 305.3 238.2C304.8 237.6 304.2 237.3 303.3 237.3C302.3 237.3 301.5 237.6 300.9 238.3C300.2 239 299.9 239.9 299.9 240.9V247.5L298.1 247.7Z" fill="#1C1E23"/>
<path d="M319.5 244.6L321 245C320.1 247 318.5 248 316.2 248C314.5 248 313.1 247.4 312 246.3C310.9 245.2 310.4 243.7 310.4 242C310.4 240.3 310.9 238.8 311.9 237.6C312.9 236.4 314.2 235.9 315.9 235.9C317.4 235.9 318.7 236.4 319.7 237.4C320.7 238.4 321.3 239.9 321.3 241.7V242.3H312.1C312.2 243.6 312.6 244.6 313.3 245.4C314 246.2 315 246.6 316.1 246.6C317.7 246.6 318.8 245.9 319.5 244.6ZM315.9 237.3C314.8 237.3 314 237.6 313.3 238.3C312.6 239 312.3 239.9 312.2 241.1H319.6C319.5 239.8 319.2 238.8 318.5 238.2C317.7 237.6 316.9 237.3 315.9 237.3Z" fill="#1C1E23"/>
<path d="M335.4 248.1C333.9 248.1 332.6 247.7 331.4 246.9C330.2 246.1 329.6 245 329.4 243.6L331.2 243.3C331.4 244.4 331.9 245.2 332.7 245.7C333.5 246.2 334.5 246.5 335.5 246.5C336.7 246.5 337.6 246.2 338.3 245.6C339 245 339.4 244.2 339.4 243.2C339.4 242.5 339.2 242 338.9 241.5C338.6 241.1 338.1 240.7 337.5 240.5C336.9 240.3 336.3 240.1 335.7 239.9C335 239.7 334.4 239.5 333.7 239.3C333 239.1 332.4 238.8 331.9 238.5C331.3 238.2 330.9 237.7 330.5 237.1C330.2 236.5 330 235.7 330 234.9C330 233.5 330.5 232.3 331.5 231.5C332.5 230.6 333.8 230.2 335.4 230.2C337 230.2 338.3 230.6 339.3 231.5C340.3 232.4 340.9 233.5 341.1 234.8L339.3 235.1C339.2 234.1 338.7 233.3 338 232.7C337.3 232.1 336.4 231.8 335.2 231.8C334.2 231.8 333.4 232.1 332.7 232.6C332 233.1 331.7 233.9 331.7 234.8C331.7 235.7 332 236.4 332.7 236.9C333.3 237.4 334.1 237.8 335 238C335.9 238.2 336.8 238.4 337.8 238.7C338.7 239 339.5 239.5 340.2 240.2C340.8 240.9 341.2 241.9 341.2 243.1C341.2 244.6 340.6 245.9 339.6 246.8C338.4 247.6 337.1 248 335.4 248.1Z" fill="#1C1E23"/>
<path d="M352.8 244.6L354.3 245C353.4 247 351.8 248 349.5 248C347.8 248 346.4 247.4 345.3 246.3C344.2 245.2 343.7 243.7 343.7 242C343.7 240.3 344.2 238.8 345.2 237.6C346.2 236.4 347.5 235.9 349.2 235.9C350.7 235.9 352 236.4 353 237.4C354 238.4 354.6 239.9 354.6 241.7V242.3H345.4C345.5 243.6 345.9 244.6 346.6 245.4C347.3 246.2 348.3 246.6 349.4 246.6C351 246.6 352.1 245.9 352.8 244.6ZM349.2 237.3C348.1 237.3 347.3 237.6 346.6 238.3C345.9 239 345.6 239.9 345.5 241.1H352.9C352.8 239.8 352.4 238.8 351.8 238.2C351 237.6 350.2 237.3 349.2 237.3Z" fill="#1C1E23"/>
<path d="M366.2 240.1V247.7H364.5V246.3C364.2 246.9 363.7 247.3 363 247.6C362.3 247.9 361.6 248.1 360.8 248.1C359.6 248.1 358.6 247.8 357.9 247.1C357.2 246.5 356.8 245.6 356.8 244.6C356.8 243.5 357.2 242.6 358.1 241.9C359 241.2 360.1 240.9 361.6 240.9C362.9 240.9 363.9 241.1 364.6 241.5V240.2C364.6 239.3 364.4 238.6 363.9 238.1C363.4 237.6 362.8 237.3 361.9 237.3C360.5 237.3 359.5 237.9 359.1 239.2L357.4 239C357.7 238 358.2 237.3 359.1 236.7C359.9 236.2 360.9 235.9 362.1 235.9C363.5 235.9 364.5 236.3 365.3 237C365.9 237.8 366.3 238.8 366.2 240.1ZM358.6 244.4C358.6 245 358.8 245.6 359.3 246C359.8 246.4 360.4 246.6 361.2 246.6C362.1 246.6 362.9 246.3 363.6 245.8C364.3 245.3 364.6 244.7 364.6 244V242.8C363.9 242.3 363 242.1 361.8 242.1C360.8 242.1 360 242.3 359.5 242.7C358.8 243.2 358.6 243.7 358.6 244.4Z" fill="#1C1E23"/>
<path d="M369.7 247.7V236.3H371.3V238.2H371.4C371.7 237.5 372.1 237 372.7 236.6C373.3 236.2 373.9 236 374.6 236C375 236 375.3 236.1 375.6 236.2V237.9C375.4 237.8 375 237.8 374.6 237.8C373.6 237.8 372.8 238.2 372.2 238.9C371.6 239.7 371.3 240.7 371.3 242V247.8L369.7 247.7Z" fill="#1C1E23"/>
<path d="M382.3 235.9C385 235.9 386.7 237.1 387.4 239.6L385.7 239.9C385.2 238.3 384 237.5 382.3 237.5C381.1 237.5 380.2 237.9 379.5 238.8C378.8 239.7 378.5 240.7 378.5 242.1C378.5 243.4 378.8 244.5 379.5 245.4C380.2 246.3 381.1 246.7 382.3 246.7C384 246.7 385.1 245.9 385.7 244.2L387.3 244.6C386.9 245.7 386.3 246.6 385.5 247.3C384.6 247.9 383.6 248.2 382.3 248.2C380.6 248.2 379.3 247.6 378.3 246.5C377.3 245.3 376.8 243.9 376.8 242.1C376.8 240.3 377.3 238.9 378.3 237.7C379.4 236.5 380.7 235.9 382.3 235.9Z" fill="#1C1E23"/>
<path d="M390.1 247.7V230.5H391.8V238C392.1 237.4 392.7 236.8 393.3 236.4C394 236 394.7 235.8 395.6 235.8C396.8 235.8 397.8 236.2 398.6 237C399.3 237.8 399.7 238.9 399.7 240.3V247.6H398V240.7C398 239.6 397.8 238.8 397.3 238.2C396.8 237.6 396.2 237.3 395.3 237.3C394.3 237.3 393.5 237.6 392.9 238.3C392.2 239 391.9 239.9 391.9 240.9V247.5L390.1 247.7Z" fill="#1C1E23"/>
<path d="M291.4 255.4L298 272.8H296.1L294.1 267.5H286.6L284.6 272.8H282.7L289.4 255.4H291.4ZM290.4 257.5H290.3L287.2 265.8H293.5L290.4 257.5Z" fill="#1C1E23"/>
<path d="M310.2 265.5V272.8H308.5V265.9C308.5 264.8 308.3 264 307.8 263.4C307.3 262.8 306.7 262.5 305.8 262.5C304.8 262.5 304 262.8 303.4 263.5C302.7 264.2 302.4 265.1 302.4 266.1V272.7H300.7V261.3H302.3V263.1H302.4C302.7 262.4 303.2 261.9 303.9 261.5C304.6 261.1 305.3 260.9 306.2 260.9C307.4 260.9 308.4 261.3 309.2 262.1C309.8 263 310.2 264.1 310.2 265.5Z" fill="#1C1E23"/>
<path d="M322.5 265.2V272.8H320.8V271.4C320.5 272 320 272.4 319.3 272.7C318.6 273 317.9 273.2 317.1 273.2C315.9 273.2 314.9 272.9 314.2 272.2C313.5 271.6 313.1 270.7 313.1 269.7C313.1 268.6 313.5 267.7 314.4 267C315.3 266.3 316.4 266 317.9 266C319.2 266 320.2 266.2 320.9 266.6V265.3C320.9 264.4 320.7 263.7 320.2 263.2C319.7 262.7 319.1 262.5 318.2 262.5C316.8 262.5 315.8 263.1 315.4 264.4L313.7 264.2C314 263.2 314.5 262.5 315.4 261.9C316.2 261.4 317.2 261.1 318.4 261.1C319.8 261.1 320.8 261.5 321.6 262.2C322.1 262.8 322.5 263.9 322.5 265.2ZM314.8 269.5C314.8 270.1 315 270.7 315.5 271.1C316 271.5 316.6 271.7 317.4 271.7C318.3 271.7 319.1 271.4 319.7 270.9C320.4 270.4 320.7 269.8 320.7 269.1V267.9C320 267.4 319.1 267.2 317.9 267.2C316.9 267.2 316.1 267.4 315.6 267.8C315 268.3 314.8 268.8 314.8 269.5Z" fill="#1C1E23"/>
<path d="M325.9 272.8V255.6H327.7V272.8H325.9Z" fill="#1C1E23"/>
<path d="M341.1 261.4L334.5 277.6H332.8L334.9 272.5L330 261.4H331.9L335.8 270.4L339.4 261.4H341.1Z" fill="#1C1E23"/>
<path d="M348.6 273C346.2 273 345 271.7 345 269V262.8H342.6V261.3H345V258L346.7 257.7V261.4H350.4V262.9H346.7V268.8C346.7 269.8 346.9 270.5 347.2 270.9C347.5 271.3 348.1 271.5 348.9 271.5C349.5 271.5 350 271.4 350.3 271.2L350.5 272.6C350.1 272.9 349.5 273 348.6 273Z" fill="#1C1E23"/>
<path d="M354.5 255.6V258.1H352.7V255.6H354.5ZM354.5 261.4V272.8H352.7V261.4H354.5Z" fill="#1C1E23"/>
<path d="M362.9 261C365.6 261 367.3 262.2 368 264.7L366.3 265C365.8 263.4 364.6 262.6 362.9 262.6C361.7 262.6 360.8 263 360.1 263.9C359.4 264.8 359.1 265.8 359.1 267.2C359.1 268.5 359.4 269.6 360.1 270.5C360.8 271.4 361.7 271.8 362.9 271.8C364.6 271.8 365.7 271 366.3 269.3L367.9 269.7C367.5 270.8 366.9 271.7 366.1 272.4C365.2 273 364.2 273.3 362.9 273.3C361.2 273.3 359.9 272.7 358.9 271.6C357.9 270.4 357.4 269 357.4 267.2C357.4 265.4 357.9 264 358.9 262.8C359.9 261.6 361.2 261 362.9 261Z" fill="#1C1E23"/>
<path d="M374.5 273.1C373.4 273.1 372.4 272.8 371.6 272.3C370.8 271.8 370.3 271 370.1 270.1L371.7 269.8C371.9 270.4 372.2 270.9 372.7 271.3C373.2 271.7 373.9 271.8 374.6 271.8C375.4 271.8 376 271.6 376.4 271.2C376.8 270.8 377 270.3 377 269.6C377 269 376.8 268.6 376.3 268.3C375.9 268 375.3 267.8 374.6 267.6C373.9 267.5 373.3 267.3 372.7 267.2C372.1 267 371.5 266.7 371 266.2C370.6 265.7 370.3 265.1 370.3 264.2C370.3 263.2 370.7 262.4 371.4 261.8C372.1 261.2 373.1 260.9 374.3 260.9C375.4 260.9 376.3 261.2 377.1 261.7C377.9 262.3 378.4 263 378.5 263.8L376.9 264.1C376.8 263.5 376.6 263.1 376.1 262.7C375.6 262.3 375 262.2 374.3 262.2C373.6 262.2 373 262.4 372.6 262.7C372.2 263 372 263.5 372 264C372 264.6 372.2 265 372.7 265.3C373.2 265.6 373.7 265.8 374.4 266C375.1 266.1 375.7 266.3 376.3 266.5C377 266.7 377.5 267 378 267.5C378.5 268 378.7 268.6 378.7 269.5C378.7 270.6 378.3 271.5 377.5 272.1C376.7 272.7 375.7 273.1 374.5 273.1Z" fill="#1C1E23"/>
<path d="M386.7 264.2C386.7 261.5 387.5 259.3 389.1 257.7C390.7 256.1 392.6 255.2 395.1 255.2C396.8 255.2 398.3 255.7 399.6 256.6C400.9 257.5 401.8 258.8 402.3 260.4L400.4 260.7C400 259.6 399.4 258.7 398.4 258C397.5 257.3 396.4 256.9 395.1 256.9C393.2 256.9 391.7 257.6 390.5 258.9C389.3 260.3 388.7 262 388.7 264.1C388.7 266.2 389.3 268 390.5 269.3C391.7 270.7 393.3 271.3 395.1 271.3C396.3 271.3 397.5 271 398.4 270.3C399.3 269.6 400 268.7 400.4 267.5L402.2 267.9C401.7 269.5 400.9 270.7 399.6 271.6C398.3 272.5 396.9 273 395.2 273C392.8 273 390.8 272.2 389.2 270.5C387.5 269 386.7 266.9 386.7 264.2Z" fill="#1C1E23"/>
<path d="M404.5 267.1C404.5 265.3 405 263.8 406.1 262.7C407.2 261.6 408.6 261 410.2 261C411.9 261 413.2 261.6 414.3 262.7C415.4 263.8 415.9 265.3 415.9 267.1C415.9 268.9 415.3 270.3 414.3 271.5C413.2 272.6 411.8 273.2 410.2 273.2C408.6 273.2 407.2 272.6 406.1 271.5C405.1 270.3 404.5 268.8 404.5 267.1ZM406.2 267.1C406.2 268.4 406.6 269.5 407.3 270.3C408 271.2 409 271.6 410.2 271.6C411.4 271.6 412.4 271.2 413.1 270.3C413.8 269.4 414.2 268.4 414.2 267.1C414.2 265.8 413.8 264.7 413.1 263.8C412.4 262.9 411.4 262.5 410.2 262.5C409 262.5 408 262.9 407.3 263.8C406.6 264.7 406.2 265.7 406.2 267.1Z" fill="#1C1E23"/>
<path d="M435.5 265.4V272.8H433.8V265.9C433.8 264.8 433.6 264 433.1 263.4C432.6 262.8 432 262.5 431.2 262.5C430.3 262.5 429.6 262.8 429 263.5C428.4 264.2 428.1 265 428.1 266V272.8H426.4V265.9C426.4 264.8 426.2 264 425.7 263.4C425.2 262.8 424.6 262.5 423.8 262.5C422.9 262.5 422.2 262.8 421.6 263.5C421 264.2 420.7 265 420.7 266V272.8H419V261.4H420.6V263H420.7C421 262.4 421.5 261.9 422.1 261.6C422.8 261.2 423.5 261 424.3 261C425.2 261 425.9 261.2 426.6 261.7C427.3 262.1 427.7 262.7 427.9 263.4C428.3 262.6 428.8 262.1 429.5 261.6C430.2 261.2 430.9 261 431.8 261C433 261 434 261.4 434.7 262.2C435.1 263 435.5 264.1 435.5 265.4Z" fill="#1C1E23"/>
<path d="M448.8 262.7C449.8 263.8 450.3 265.3 450.3 267.1C450.3 268.9 449.8 270.3 448.7 271.5C447.7 272.6 446.3 273.2 444.8 273.2C443.9 273.2 443.1 273 442.4 272.7C441.7 272.3 441.1 271.8 440.8 271.2V277.8H439V261.5H440.6V263.5C441 262.7 441.6 262.1 442.3 261.7C443 261.3 443.9 261.1 444.8 261.1C446.4 261 447.7 261.5 448.8 262.7ZM448.5 267.1C448.5 265.8 448.1 264.7 447.4 263.9C446.6 263 445.7 262.6 444.6 262.6C443.5 262.6 442.5 263 441.8 263.9C441.1 264.7 440.8 265.8 440.8 267.2C440.8 268.6 441.1 269.7 441.8 270.5C442.5 271.3 443.4 271.8 444.6 271.8C445.8 271.8 446.8 271.4 447.5 270.5C448.2 269.5 448.6 268.4 448.5 267.1Z" fill="#1C1E23"/>
<path d="M462 265.2V272.8H460.3V271.4C460 272 459.5 272.4 458.8 272.7C458.1 273 457.4 273.2 456.6 273.2C455.4 273.2 454.4 272.9 453.7 272.2C453 271.6 452.6 270.7 452.6 269.7C452.6 268.6 453 267.7 453.9 267C454.8 266.3 455.9 266 457.4 266C458.7 266 459.7 266.2 460.4 266.6V265.3C460.4 264.4 460.2 263.7 459.7 263.2C459.2 262.7 458.6 262.5 457.7 262.5C456.3 262.5 455.3 263.1 454.9 264.4L453.2 264.2C453.5 263.2 454 262.5 454.9 261.9C455.7 261.4 456.7 261.1 457.9 261.1C459.3 261.1 460.3 261.5 461.1 262.2C461.6 262.8 462 263.9 462 265.2ZM454.3 269.5C454.3 270.1 454.5 270.7 455 271.1C455.5 271.5 456.1 271.7 456.9 271.7C457.8 271.7 458.6 271.4 459.3 270.9C460 270.4 460.3 269.8 460.3 269.1V267.9C459.6 267.4 458.7 267.2 457.5 267.2C456.5 267.2 455.7 267.4 455.2 267.8C454.6 268.3 454.3 268.8 454.3 269.5Z" fill="#1C1E23"/>
<path d="M475 265.5V272.8H473.3V265.9C473.3 264.8 473.1 264 472.6 263.4C472.1 262.8 471.5 262.5 470.6 262.5C469.6 262.5 468.8 262.8 468.2 263.5C467.5 264.2 467.2 265.1 467.2 266.1V272.7H465.5V261.3H467.1V263.1H467.2C467.5 262.4 468 261.9 468.7 261.5C469.4 261.1 470.1 260.9 471 260.9C472.2 260.9 473.2 261.3 474 262.1C474.7 263 475 264.1 475 265.5Z" fill="#1C1E23"/>
<path d="M487.9 261.4L481.3 277.6H479.6L481.7 272.5L476.8 261.4H478.7L482.6 270.4L486.2 261.4H487.9Z" fill="#1C1E23"/>
<path d="M261.8 224.8H259.6V279.1H261.8V224.8Z" fill="#1C1E23"/>
<path d="M90.6998 252.1C90.6998 249 89.6998 245.9 87.8998 243.3C86.0998 240.7 83.4998 238.8 80.5998 237.7C80.8998 236.3 80.9998 234.9 80.9998 233.5C80.9998 228.9 79.4998 224.4 76.7998 220.6C74.0998 216.9 70.1998 214.1 65.7998 212.7C61.3998 211.3 56.5998 211.3 52.1998 212.7C47.7998 214.1 43.8998 216.9 41.1998 220.7C39.1998 219.2 36.6998 218.3 34.1998 218.3C31.6998 218.3 29.1998 219.1 27.0998 220.5C25.0998 222 23.5998 224.1 22.7998 226.5C22.0998 228.9 22.1998 231.5 22.9998 233.9C19.9998 235 17.4998 236.9 15.5998 239.5C13.7998 242.1 12.7998 245.1 12.7998 248.3C12.7998 251.4 13.7998 254.5 15.5998 257.1C17.3998 259.7 19.9998 261.6 22.9998 262.7C22.6998 264.1 22.5998 265.5 22.5998 266.9C22.5998 271.5 24.0998 276 26.7998 279.7C29.4998 283.4 33.3998 286.2 37.7998 287.6C42.1998 289 46.9998 289 51.3998 287.5C55.7998 286.1 59.5998 283.2 62.2998 279.5C64.2998 281 66.7998 281.9 69.2998 281.9C71.7998 281.9 74.2998 281.1 76.3998 279.7C78.3998 278.2 79.8998 276.1 80.6998 273.7C81.3998 271.3 81.3998 268.7 80.4998 266.3C83.4998 265.2 86.0998 263.3 87.8998 260.7C89.5998 258.3 90.5998 255.2 90.6998 252.1Z" fill="white"/>
<path d="M43.3996 244.9L60.3996 252.6L77.5996 237.6C77.7996 236.4 77.9996 235.1 77.9996 233.9C77.9996 229.8 76.6996 225.9 74.2996 222.6C71.8996 219.3 68.3996 216.9 64.4996 215.7C60.5996 214.5 56.3996 214.6 52.4996 215.9C48.5996 217.2 45.2996 219.8 42.9996 223.1L40.0996 237.8L43.3996 244.9Z" fill="#FEC514"/>
<path d="M25.7999 262.8C25.5999 264.1 25.3999 265.3 25.3999 266.6C25.3999 270.7 26.6999 274.7 29.1999 278C31.5999 281.3 35.0999 283.7 38.9999 284.9C42.8999 286.1 47.1999 286 50.9999 284.7C54.8999 283.3 58.1999 280.8 60.5999 277.4L63.3999 262.7L59.5999 255.5L42.4999 247.8L25.7999 262.8Z" fill="#00BFB3"/>
<path d="M25.6998 233.5L37.3998 236.2L39.9998 223C38.3998 221.8 36.4998 221.2 34.4998 221.1C32.4998 221.1 30.5998 221.7 28.9998 222.9C27.3998 224.1 26.1998 225.7 25.5998 227.6C24.9998 229.6 24.9998 231.7 25.6998 233.5Z" fill="#F04E98"/>
<path d="M24.6998 236.3C22.0998 237.2 19.8998 238.8 18.2998 241C16.6998 243.2 15.7998 245.8 15.7998 248.5C15.7998 251.1 16.5998 253.6 18.0998 255.8C19.5998 257.9 21.6998 259.6 24.0998 260.5L40.4998 245.8L37.4998 239.4L24.6998 236.3Z" fill="#1BA9F5"/>
<path d="M63.5996 277.4C65.1996 278.6 67.0996 279.2 69.0996 279.2C71.0996 279.2 72.9996 278.6 74.5996 277.4C76.1996 276.2 77.3996 274.6 77.8996 272.7C78.4996 270.8 78.3996 268.8 77.6996 266.9L65.9996 264.2L63.5996 277.4Z" fill="#93C90E"/>
<path d="M65.9996 261.2L78.7996 264.2C81.3996 263.3 83.5996 261.7 85.1996 259.5C86.7996 257.3 87.6996 254.7 87.6996 252C87.6996 249.4 86.8996 246.9 85.3996 244.8C83.8996 242.7 81.7996 241 79.3996 240.1L62.5996 254.7L65.9996 261.2Z" fill="#0077CC"/>
<path d="M121.6 265.8L123.2 265.6L123.3 268.7C119.8 269.2 116.3 269.5 112.8 269.6C108.9 269.6 106.2 268.5 104.6 266.3C103 264.1 102.2 260.6 102.2 255.9C102.2 246.6 105.9 241.9 113.4 241.9C117 241.9 119.7 242.9 121.5 244.9C123.3 246.9 124.2 250 124.2 254.3L124 257.3H106.3C106.3 260.2 106.8 262.4 107.9 263.8C109 265.2 110.8 265.9 113.5 265.9C116.2 266.1 118.9 266 121.6 265.8ZM120.2 254.3C120.2 251 119.7 248.7 118.6 247.4C117.6 246.1 115.8 245.4 113.4 245.4C111 245.4 109.2 246.1 108 247.5C106.8 248.9 106.2 251.2 106.2 254.3H120.2Z" fill="#1C1E23"/>
<path d="M129.8 269.5V234.5H133.8V269.5H129.8Z" fill="#1C1E23"/>
<path d="M159.2 250.5V264C159.2 265.3 162.5 265.3 162.5 265.3L162.3 268.8C159.5 268.8 157.1 269 155.7 267.7C152.7 269 149.4 269.7 146 269.7C143.5 269.7 141.7 269 140.4 267.6C139.1 266.2 138.5 264.2 138.5 261.6C138.5 259 139.2 257.1 140.5 255.9C141.8 254.7 143.9 253.9 146.7 253.7L155.1 252.9V250.6C155.1 248.8 154.7 247.5 153.9 246.7C153.5 246.3 153 246 152.4 245.8C151.8 245.6 151.3 245.5 150.7 245.5H140.1V242H150.4C153.4 242 155.6 242.7 157 244.1C158.5 245.4 159.1 247.6 159.2 250.5ZM142.6 261.4C142.6 264.7 144 266.3 146.7 266.3C149.2 266.3 151.6 265.9 153.9 265.1L155.1 264.7V255.9L147.2 256.6C145.6 256.7 144.4 257.2 143.7 258C143 258.8 142.6 259.9 142.6 261.4Z" fill="#1C1E23"/>
<path d="M174.9 245.5C171 245.5 169 246.8 169 249.5C169 250.7 169.4 251.6 170.4 252.1C171.3 252.6 173.3 253.1 176.5 253.7C179.7 254.2 181.9 255 183.2 256C184.5 257 185.2 258.9 185.2 261.6C185.2 264.3 184.3 266.3 182.5 267.6C180.7 268.9 178.1 269.5 174.7 269.5C172.5 269.5 165.1 268.7 165.1 268.7L165.3 265.2C169.6 265.6 172.6 265.9 174.7 265.9C176.8 265.9 178.4 265.6 179.4 264.9C180.5 264.3 181 263.1 181 261.6C181 260.1 180.6 259 179.6 258.5C178.7 258 176.6 257.4 173.5 256.9C170.4 256.4 168.1 255.7 166.8 254.7C165.5 253.7 164.8 252 164.8 249.4C164.8 246.8 165.7 244.9 167.6 243.6C169.5 242.3 171.7 241.7 174.5 241.7C176.7 241.7 184.2 242.2 184.2 242.2V245.7C180.4 245.8 177.1 245.5 174.9 245.5Z" fill="#1C1E23"/>
<path d="M204.6 246H196.1V258.7C196.1 261.8 196.3 263.8 196.8 264.7C197.2 265.7 198.3 266.1 200 266.1L204.8 265.8L205.1 269.1C203.3 269.4 201.5 269.6 199.6 269.7C196.8 269.7 194.9 269 193.8 267.7C192.7 266.3 192.2 263.8 192.2 260V246H188.4V242.5H192.2V234.4H196.2V242.5H204.7V246H204.6Z" fill="#1C1E23"/>
<path d="M210.2 239.1V234.5H214.2V239.1H210.2ZM210.2 269.5V242.5H214.2V269.5H210.2Z" fill="#1C1E23"/>
<path d="M231.6 242C233.6 242.1 235.6 242.3 237.6 242.6L238.9 242.8L238.7 246C236.6 245.7 234.5 245.6 232.4 245.5C229.4 245.5 227.3 246.2 226.2 247.7C225.1 249.1 224.6 251.8 224.6 255.7C224.6 259.6 225.1 262.3 226.1 263.8C227.1 265.3 229.2 266.1 232.5 266.1L238.8 265.6L239 268.9C236.5 269.3 234.1 269.6 231.6 269.6C227.4 269.6 224.5 268.5 223 266.4C221.4 264.3 220.6 260.7 220.6 255.6C220.6 250.5 221.5 247 223.2 244.9C224.7 243 227.6 242 231.6 242Z" fill="#1C1E23"/>
</svg>
